 http://imageshack.us/m/20/6104/thesunsetlimited2011onl.jpg

Country.......: USA
Genre.........: Drama
Date release..: 12.02.2011 [World]
Director......: Tommy Lee Jones
Writers.......: Cormac McCarthy, Cormac McCarthy 
Duration......: 91 min.
More..........: http://www.imdb.com/title/tt1510938
Trailer.......: http://www.imdb.com/video/imdb/vi3966802457
Trailer.......:

Pilot :
Two men in an apartment with their opposing beliefs. 

Cats :
Samuel L. Jackson   	 ...  	Black
Tommy Lee Jones 	... 	White 

Data Technical :
!!! SAMPLE !!!
Audio.....: English
Subtitles.: English .srt, Portuguese .srt, Romanian .srt, Russian .srt, Spanish .srt, Italian .srt, Dutch .srt, Czech .srt, Polish .txt
Format                           : AVI
Format/Info                      : Audio Video Interleave
File size                        : 701 MiB
Duration                         : 1h 30mn
Overall bit rate                 : 1 078 Kbps
Writing library                  : VirtualDub build 32618/release
Video
ID                               : 0
Format                           : MPEG-4 Visual
Format profile                   : Advanced Simple@L5
Format settings, BVOP            : Yes
Format settings, QPel            : No
Format settings, GMC             : No warppoints
Format settings, Matrix          : Default (MPEG)
Muxing mode                      : Packed bitstream
Codec ID                         : XVID
Codec ID/Hint                    : XviD
Duration                         : 1h 30mn
Bit rate                         : 932 Kbps
Width                            : 640 pixels
Height                           : 352 pixels
Display aspect ratio             : 16:9
Frame rate                       : 23.976 fps
Color space                      : YUV
Chroma subsampling               : 4:2:0
Bit depth                        : 8 bits
Scan type                        : Progressive
Bits/(Pixel*Frame)               : 0.173
Stream size                      : 606 MiB (87%)
Writing library                  : XviD 1.2.1 (UTC 2008-12-04)
Audio
ID                               : 1
Format                           : MPEG Audio
Format version                   : Version 1
Format profile                   : Layer 3
Codec ID                         : 55
Codec ID/Hint                    : MP3
Duration                         : 1h 30mn
Bit rate mode                    : Variable
Bit rate                         : 128 Kbps
Channel(s)                       : 2 channels
Sampling rate                    : 48.0 KHz
Stream size                      : 86.3 MiB (12%)
Alignment                        : Aligned on interleaves
Interleave, duration             : 24 ms (0.58 video frame)
Interleave, preload duration     : 537 ms
Writing library                  : LAME3.98r
Encoding settings                : -m s -V 4 -q 3 -lowpass 17 --abr 128

Screen : 
http://imageshack.us/m/710/4062/thesunsetlimited2011s1.jpg 
http://imageshack.us/m/850/8836/thesunsetlimited2011s2.jpg 
http://imageshack.us/m/52/5066/thesunsetlimited2011s3.jpg 
http://imageshack.us/m/836/8520/thesunsetlimited2011s4.jpg 
http://imageshack.us/m/715/2521/thesunsetlimited2011s5.jpg